<svg xmlns="http://www.w3.org/2000/svg" width="72" height="16" fill="none" xmlns:v="https://vecta.io/nano"><path fill-rule="evenodd" d="M10.052 11.404c0 2.513-2.005 4.335-5.189 4.335a6.96 6.96 0 0 1-2.65-.606A6.93 6.93 0 0 1 0 13.56l1.065-1.175c.997.947 2.17 1.867 3.776 1.867 1.785 0 3.708-.998 3.708-2.792 0-1.49-1.186-2.461-3.678-3.227C2.031 7.368.59 6.193.59 3.982.588 1.795 2.442 0 5.086 0 7.06 0 8.295.84 9.497 1.912L8.45 3.073c-1.054-.932-2.058-1.563-3.291-1.563-1.529-.001-3.038.984-3.038 2.399 0 1.283.738 2.101 3.347 2.898 2.39.734 4.583 1.873 4.583 4.597v.002zm12.887-9.958a1.25 1.25 0 0 0 1.249 1.248 1.25 1.25 0 0 0 .884-.366 1.25 1.25 0 0 0 .341-.638c.048-.241.023-.492-.071-.719a1.25 1.25 0 0 0-.459-.56 1.26 1.26 0 0 0-.694-.213 1.25 1.25 0 0 0-1.249 1.248h-.001zm15.61 13.545s.927.752 4.017.752h-.002c3.05 0 5.526-2.226 5.526-5.269s-2.474-5.259-5.524-5.259a5.67 5.67 0 0 0-2.511.513V.456h-1.506v14.535zm11.305-4.502c0 3.043 2.471 5.511 5.52 5.511a5.52 5.52 0 0 0 5.523-5.51c0-3.043-2.473-5.51-5.522-5.51s-5.521 2.466-5.521 5.509zm20.18 5.006H72l-4.348-5.169 4.054-4.847h-1.955L66.673 9.16l-3.095-3.682h-1.966l4.083 4.853-4.317 5.163h1.954l3.343-3.996 3.359 3.996zM55.389 6.469c-.796.001-1.574.236-2.236.677s-1.176 1.067-1.479 1.799-.384 1.54-.229 2.318.538 1.493 1.1 2.056 1.277.943 2.058 1.098a4.03 4.03 0 0 0 4.129-1.708 4 4 0 0 0 .676-2.228c0-2.216-1.8-4.012-4.02-4.012h.001zm-12.815.254a4.48 4.48 0 0 0-2.512.811v6.206c.78.378 1.645.551 2.511.501 2.218 0 4.017-1.547 4.017-3.759s-1.801-3.76-4.019-3.76h.002.001zM35.041.457h-1.507v15.035h1.507V.457zm-6.524 0h1.507v15.035h-1.507V.457zm-14.57 9.783l-.005-.005.005-.005v.009zm0 5.253V10.24l5.264 5.255h2.13l-5.27-5.259 4.771-4.764h-2.131l-4.766 4.76V.457H12.44v15.035h1.507.001zm9.542.002h1.506V5.471h-1.506v10.024z" fill="#fff"/></svg>