<svg xmlns="http://www.w3.org/2000/svg" width="80" height="80" fill="none" xmlns:v="https://vecta.io/nano"><path d="M40 0a40 40 0 0 0-15.307 3.045A40 40 0 0 0 0 40a40 40 0 0 0 24.693 36.955 40 40 0 0 0 43.592-8.671 40 40 0 0 0 8.671-43.592A40 40 0 0 0 55.307 3.045 40 40 0 0 0 40 0zm0 56c-10.52 0-20-6.28-24-16 5.52-13.24 20.76-19.52 34-14 6.32 2.64 11.36 7.68 14 14-4 9.72-13.48 16-24 16z" fill="#3f2aff"/><path fill-rule="evenodd" d="M40.357 30.313c-2.664 0-5.219 1.058-7.103 2.942s-2.942 4.439-2.942 7.103 1.058 5.219 2.942 7.103 4.439 2.942 7.103 2.942 5.219-1.058 7.103-2.942 2.942-4.439 2.942-7.103-1.058-5.219-2.942-7.103-4.439-2.942-7.103-2.942zm-.001 14.565a4.52 4.52 0 0 0 0-9.04 4.52 4.52 0 0 0 0 9.04z" fill="#212133"/></svg>