<svg xmlns="http://www.w3.org/2000/svg" width="80" height="80" fill="none" xmlns:v="https://vecta.io/nano"><g clip-path="url(#A)" fill="#212133"><path d="M37.91 43.367a.56.56 0 0 0 .561.561h.718c-.122-.361-.166-.743-.129-1.122h-.589a.56.56 0 0 0-.561.561zm4.443-19.041c-.437-.093-.893-.009-1.268.234a1.68 1.68 0 0 0-.73 1.062l-1.616 10.304a.85.85 0 0 1-.807.693c-.398.012-.752-.255-.848-.642l-1.981-9.114c-.088-.609-.502-1.122-1.08-1.337a1.68 1.68 0 0 0-2.231 1.937l1.88 10.293a6.12 6.12 0 0 1-.028 2.368c.574-.566 1.187-1.091 1.835-1.571a3.89 3.89 0 0 1 2.346-.797h3.749L43.65 26.33c.095-.438.011-.895-.232-1.271a1.68 1.68 0 0 0-1.065-.732zm.769 20.792a2.76 2.76 0 0 1-.977.449c.076.122.144.25.202.382a.56.56 0 0 1-.511.786.56.56 0 0 1-.511-.337c-.358-.821-1.17-1.35-2.065-1.347h-.791c-.93 0-1.684-.754-1.684-1.684s.754-1.684 1.684-1.684h1.684c1.24 0 2.245-1.005 2.245-2.245v-.561h-4.574a2.81 2.81 0 0 0-1.684.561c-2.2 1.639-4.406 4.08-4.406 6.864a5.98 5.98 0 0 0 1.122 3.496l2.806 3.872a3.04 3.04 0 0 1 .561 2.043h9.541c0-1.526-.151-1.122 2.318-5.326a10.17 10.17 0 0 0 1.049-4.215v-2.593l-1.308 2.082a2.58 2.58 0 0 1-4.703-.544zm-2.942-2.312c-.103.471.041.961.382 1.302s.831.484 1.302.382c.814-.18 1.122-.814 1.543-1.532l2.245-3.626a1.61 1.61 0 0 0-.376-2.245 1.56 1.56 0 0 0-2.133.617l-.152.241a1.12 1.12 0 0 1 .528.932v.561a3.37 3.37 0 0 1-3.339 3.367zm8.842-3.929c-.729-.415-1.656-.165-2.077.561-.325.528.224-.404-2.576 4.119a1.55 1.55 0 0 0-.202 1.173c.147.591.645 1.03 1.25 1.101s1.191-.24 1.472-.781l2.582-4.102a1.5 1.5 0 0 0-.449-2.071z"/></g><path fill-rule="evenodd" d="M24.693 3.045A40 40 0 0 1 40 0a40 40 0 0 1 15.307 3.045 40 40 0 0 1 21.648 21.648 40 40 0 0 1-8.671 43.592 40 40 0 0 1-43.592 8.671A40 40 0 0 1 0 40 40 40 0 0 1 24.693 3.045zm15.664 59.098a21.79 21.79 0 0 0 21.786-21.786 21.79 21.79 0 0 0-21.786-21.786 21.79 21.79 0 0 0-21.786 21.786 21.79 21.79 0 0 0 21.786 21.786z" fill="#3f2aff"/><defs><clipPath id="A"><path fill="#fff" transform="translate(25 24.286)" d="M0 0h31.429v31.429H0z"/></clipPath></defs></svg>