<svg xmlns="http://www.w3.org/2000/svg" width="24" height="24" fill="none" xmlns:v="https://vecta.io/nano"><path d="M12 2l4.122.06c1.065.05 1.79.217 2.428.465.66.254 1.216.598 1.772 1.153.509.5.902 1.105 1.153 1.772.247.637.415 1.363.465 2.428L22 12l-.06 4.122c-.05 1.065-.218 1.79-.465 2.428-.25.668-.644 1.273-1.153 1.772-.5.508-1.105.902-1.772 1.153-.637.247-1.363.415-2.428.465L12 22c-2.717 0-3.056-.01-4.122-.06s-1.79-.218-2.428-.465a4.89 4.89 0 0 1-1.772-1.153c-.509-.5-.902-1.104-1.153-1.772-.248-.637-.415-1.363-.465-2.428L2 12l.06-4.122c.05-1.066.217-1.79.465-2.428a4.88 4.88 0 0 1 1.153-1.772c.5-.509 1.104-.902 1.772-1.153.638-.248 1.362-.415 2.428-.465L12 2zm0 5a5 5 0 0 0-5 5 5 5 0 0 0 5 5 5 5 0 0 0 5-5 5 5 0 0 0-5-5zm6.5-.25a1.25 1.25 0 0 0-1.25-1.25A1.25 1.25 0 0 0 16 6.75 1.25 1.25 0 0 0 17.25 8a1.25 1.25 0 0 0 1.25-1.25zM12 9a3 3 0 0 1 3 3 3 3 0 0 1-3 3 3 3 0 0 1-3-3 3 3 0 0 1 3-3z" fill="#fff"/></svg>