<?xml version="1.0" encoding="utf-8"?>
<!-- Generator: Adobe Illustrator 16.0.2, SVG Export Plug-In . SVG Version: 6.00 Build 0)  -->
<!DOCTYPE svg PUBLIC "-//W3C//DTD SVG 1.1//EN" "http://www.w3.org/Graphics/SVG/1.1/DTD/svg11.dtd">
<svg version="1.1" id="Layer_1" xmlns="http://www.w3.org/2000/svg" xmlns:xlink="http://www.w3.org/1999/xlink" x="0px" y="0px"
	 width="500px" height="250px" viewBox="0 0 500 250" enable-background="new 0 0 500 250" xml:space="preserve">
<path fill="#00358A" d="M253.357,81.996c0,0,13.145-19.011,13.144-21.646c0.131-16.371-13.541-16.371-13.541-16.371
	s-13.94-0.711-13.407,16.202C239.429,62.404,253.357,81.996,253.357,81.996z"/>
<path fill="#00358A" d="M34.059,9.823c-4.123,6.701,209.249,235.534,209.249,235.534S91.784,18.585,83.022,9.823
	C74.26,1.063,38.182,3.124,34.059,9.823z"/>
<path fill="#00358A" d="M426.795,8.687C407.202,21.162,262.38,245.357,262.38,245.357S477.81,14.978,472.656,10.34
	C467.503,5.701,440.714-0.176,426.795,8.687z"/>
<path fill="#6A016E" d="M109.307,17.554L245.37,245.357L152.084,50.024C145.677,37.726,123.5,20.387,109.307,17.554z"/>
<path fill="#E55914" d="M163.938,43.974c102.563,6.051,84.525,201.384,84.525,201.384L163.938,43.974z"/>
<path fill="#F7CF1B" d="M342.973,43.975c-102.564,6.05-84.525,201.383-84.525,201.383L342.973,43.975z"/>
<path fill="#95AE13" d="M396.896,17.554L260.833,245.357l93.285-195.333C360.524,37.726,382.702,20.387,396.896,17.554z"/>
<text transform="matrix(1 0 0 1 288.0166 238.5322)" fill="#00358A" font-family="'Verdana'" font-size="30">®</text>
</svg>
