<svg xmlns="http://www.w3.org/2000/svg" width="78" height="80" fill="none" xmlns:v="https://vecta.io/nano"><g clip-path="url(#A)"><path fill-rule="evenodd" d="M24.007 3.045C28.725 1.035 33.782 0 38.889 0s10.164 1.035 14.882 3.045 9.005 4.957 12.617 8.671 6.476 8.124 8.43 12.977 2.96 10.054 2.96 15.307c0 10.609-4.097 20.783-11.39 28.284S49.203 80 38.889 80c-5.107 0-10.164-1.035-14.882-3.045s-9.005-4.957-12.616-8.671C4.097 60.783 0 50.609 0 40s4.097-20.783 11.39-28.284c3.611-3.714 7.898-6.661 12.616-8.671zm15.229 59.098c11.698 0 21.181-9.754 21.181-21.786s-9.483-21.786-21.181-21.786-21.181 9.754-21.181 21.786 9.483 21.786 21.181 21.786z" fill="#3f2aff"/><g clip-path="url(#B)" fill="#212133"><path d="M38.888 43.112v-9.261l-.764.077h-7.352a.75.75 0 0 0-.738.759v.759h-2.213a.75.75 0 0 0-.738.759v4.553c0 .419.33.759.738.759h2.213v.759a.75.75 0 0 0 .738.759h.447l2.966 8.132a1.48 1.48 0 0 0 1.086.944 1.41 1.41 0 0 0 .295.032c.394 0 .769-.161 1.037-.449l1.772-1.808c.453-.466.561-1.193.271-1.756l-2.476-5.095h1.96c.254.012.505.053.757.077zm11.685-14.888c-.015-.026-.028-.047-.047-.071a.73.73 0 0 0-.308-.243c-.026-.014-.04-.006-.055-.011-.066-.02-.133-.043-.207-.043-.05 0-.094.02-.143.03-.028.006-.055.008-.083.017a.73.73 0 0 0-.323.216c-.006.006-.015.008-.021.014a15.45 15.45 0 0 1-9.022 5.499v9.7a15.45 15.45 0 0 1 9.022 5.497c.006.008.016.011.024.02a.72.72 0 0 0 .183.146c.022.014.04.033.062.044a.74.74 0 0 0 .301.067.75.75 0 0 0 .249-.044.77.77 0 0 0 .32-.252c.018-.024.031-.046.047-.071.071-.117.121-.246.121-.392V28.616c0-.146-.05-.275-.121-.392z"/></g></g><defs><clipPath id="A"><path fill="#fff" d="M0 0h77.778v80H0z"/></clipPath><clipPath id="B"><path fill="#fff" transform="translate(27.083 27.857)" d="M0 0h23.611v24.286H0z"/></clipPath></defs></svg>