<svg xmlns="http://www.w3.org/2000/svg" width="94" height="21" fill="none" xmlns:v="https://vecta.io/nano"><path fill-rule="evenodd" d="M13.123 14.968c0 3.298-2.617 5.69-6.775 5.69-1.195-.034-2.371-.304-3.46-.795S.817 18.67 0 17.797l1.39-1.542c1.302 1.243 2.833 2.451 4.93 2.451 2.33 0 4.841-1.31 4.841-3.664 0-1.955-1.548-3.23-4.802-4.235C2.651 9.67.77 8.128.77 5.227.768 2.356 3.188 0 6.64 0c2.577 0 4.19 1.102 5.759 2.51l-1.367 1.523C9.656 2.81 8.345 1.981 6.736 1.981 4.74 1.98 2.77 3.272 2.77 5.13c0 1.684.964 2.757 4.37 3.803 3.12.964 5.983 2.458 5.983 6.033v.002zm16.825-13.07c0 .904.73 1.638 1.631 1.638a1.63 1.63 0 0 0 1.154-.48 1.64 1.64 0 0 0 .353-1.781A1.64 1.64 0 0 0 31.58.26c-.901 0-1.631.733-1.631 1.638h-.001zm20.38 17.778s1.21.987 5.244.987l-.002-.001c3.982 0 7.214-2.922 7.214-6.915s-3.23-6.903-7.212-6.903a7.37 7.37 0 0 0-3.278.673V.599h-1.966v19.077zm14.759-5.909c0 3.994 3.226 7.233 7.207 7.233s7.209-3.238 7.21-7.232-3.228-7.232-7.209-7.232-7.208 3.237-7.208 7.231zm26.346 6.57H94l-5.676-6.784 5.293-6.362h-2.552l-4.02 4.832-4.041-4.832h-2.567l5.331 6.37-5.636 6.776h2.551l4.364-5.245 4.386 5.245zM72.313 8.49a5.25 5.25 0 0 0-4.85 3.25 5.28 5.28 0 0 0 1.137 5.74c.733.736 1.668 1.238 2.686 1.441s2.075.099 3.034-.299 1.78-1.076 2.357-1.942.884-1.883.883-2.924c0-2.908-2.35-5.266-5.248-5.266h.001zm-16.73.333a5.83 5.83 0 0 0-3.279 1.065v8.145a6.61 6.61 0 0 0 3.278.658c2.896 0 5.245-2.03 5.245-4.934s-2.351-4.935-5.247-4.935h.002l.001.001zM45.748.6h-1.967v19.734h1.967V.6zm-8.517 0h1.967v19.734h-1.967V.6zM18.209 13.44l-.006-.006.006-.006v.012zm0 6.894V13.44l6.873 6.897h2.781l-6.88-6.903 6.229-6.253H24.43l-6.222 6.247V.6h-1.967v19.734h1.967.001zm12.457.003h1.966V7.181h-1.966v13.156z" fill="#fff"/></svg>