<svg xmlns="http://www.w3.org/2000/svg" width="24" height="24" fill="none" xmlns:v="https://vecta.io/nano"><path d="M22.162 5.656c-.764.338-1.573.559-2.402.658.874-.523 1.528-1.345 1.84-2.314a8.36 8.36 0 0 1-2.656 1.015 4.18 4.18 0 0 0-5.029-.832 4.18 4.18 0 0 0-2.097 4.646c-1.663-.083-3.29-.515-4.775-1.268s-2.795-1.81-3.845-3.102a4.17 4.17 0 0 0-.566 2.103 4.18 4.18 0 0 0 1.86 3.481 4.17 4.17 0 0 1-1.894-.523v.052c0 .966.334 1.902.946 2.649s1.463 1.26 2.409 1.452a4.21 4.21 0 0 1-1.89.072c.267.831.787 1.558 1.488 2.079s1.547.81 2.419.826c-.868.681-1.861 1.185-2.923 1.482s-2.173.382-3.268.25a11.83 11.83 0 0 0 6.41 1.88c7.693 0 11.9-6.373 11.9-11.9a12.09 12.09 0 0 0-.013-.54c.819-.592 1.526-1.325 2.087-2.165l-.001-.001z" fill="#fff"/></svg>